# Rhino

v -10 -5 0
v -10 -5 5
v -10 -5 10
v -5 -5 2.5
v -5 -5 5
v -5 -5 7.5
v 0 -5 0
v 0 -5 2.5
v 0 -5 5
v 0 -5 7.5
v 0 -5 10
v 5 -5 2.5
v 5 -5 5
v 5 -5 7.5
v 10 -5 0
v 10 -5 5
v 10 -5 10
v -6.6666665 -5 0
v -3.3333333 -5 0
v 3.3333333 -5 0
v 6.6666665 -5 0
v 6.6666665 -5 10
v 3.3333333 -5 10
v -3.3333333 -5 10
v -6.6666665 -5 10
v -10 -5 8.333333
v -10 -5 6.6666665
v -10 -5 3.3333333
v -10 -5 1.6666666
v 10 -5 1.6666666
v 10 -5 3.3333333
v 10 -5 6.6666665
v 10 -5 8.333333
v 10 -5 0
v 10 -5 5
v 10 -5 10
v 10 -2.5 2.5
v 10 -2.5 5
v 10 -2.5 7.5
v 10 0 0
v 10 0 2.5
v 10 0 5
v 10 0 7.5
v 10 0 10
v 10 2.5 2.5
v 10 2.5 5
v 10 2.5 7.5
v 10 5 0
v 10 5 5
v 10 5 10
v 10 -3.3333333 0
v 10 -1.6666666 0
v 10 1.6666666 0
v 10 3.3333333 0
v 10 3.3333333 10
v 10 1.6666666 10
v 10 -1.6666666 10
v 10 -3.3333333 10
v 10 -5 8.333333
v 10 -5 6.6666665
v 10 -5 3.3333333
v 10 -5 1.6666666
v 10 5 1.6666666
v 10 5 3.3333333
v 10 5 6.6666665
v 10 5 8.333333
v 10 5 0
v 10 5 5
v 10 5 10
v 5 5 2.5
v 5 5 5
v 5 5 7.5
v 0 5 0
v 0 5 2.5
v 0 5 5
v 0 5 7.5
v 0 5 10
v -5 5 2.5
v -5 5 5
v -5 5 7.5
v -10 5 0
v -10 5 5
v -10 5 10
v 6.6666665 5 0
v 3.3333333 5 0
v -3.3333333 5 0
v -6.6666665 5 0
v -6.6666665 5 10
v -3.3333333 5 10
v 3.3333333 5 10
v 6.6666665 5 10
v 10 5 8.333333
v 10 5 6.6666665
v 10 5 3.3333333
v 10 5 1.6666666
v -10 5 1.6666666
v -10 5 3.3333333
v -10 5 6.6666665
v -10 5 8.333333
v -10 5 0
v -10 5 5
v -10 5 10
v -10 2.5 2.5
v -10 2.5 5
v -10 2.5 7.5
v -10 0 0
v -10 0 2.5
v -10 0 5
v -10 0 7.5
v -10 0 10
v -10 -2.5 2.5
v -10 -2.5 5
v -10 -2.5 7.5
v -10 -5 0
v -10 -5 5
v -10 -5 10
v -10 3.3333333 0
v -10 1.6666666 0
v -10 -1.6666666 0
v -10 -3.3333333 0
v -10 -3.3333333 10
v -10 -1.6666666 10
v -10 1.6666666 10
v -10 3.3333333 10
v -10 -5 1.6666666
v -10 -5 3.3333333
v -10 -5 6.6666665
v -10 -5 8.333333
v -10 5 8.333333
v -10 5 6.6666665
v -10 5 3.3333333
v -10 5 1.6666666
v -10 -5 0
v 0 -5 0
v 10 -5 0
v -5 -2.5 0
v 0 -2.5 0
v 5 -2.5 0
v -10 0 0
v -5 0 0
v 0 0 0
v 5 0 0
v 10 0 0
v -5 2.5 0
v 0 2.5 0
v 5 2.5 0
v -10 5 0
v 0 5 0
v 10 5 0
v 6.6666665 -5 0
v 3.3333333 -5 0
v -3.3333333 -5 0
v -6.6666665 -5 0
v 10 3.3333333 0
v 10 1.6666666 0
v 10 -1.6666666 0
v 10 -3.3333333 0
v -6.6666665 5 0
v -3.3333333 5 0
v 3.3333333 5 0
v 6.6666665 5 0
v -10 -3.3333333 0
v -10 -1.6666666 0
v -10 1.6666666 0
v -10 3.3333333 0
v -10 -5 10
v -10 0 10
v -10 5 10
v -5 -2.5 10
v -5 0 10
v -5 2.5 10
v 0 -5 10
v 0 -2.5 10
v 0 0 10
v 0 2.5 10
v 0 5 10
v 5 -2.5 10
v 5 0 10
v 5 2.5 10
v 10 -5 10
v 10 0 10
v 10 5 10
v -6.6666665 -5 10
v -3.3333333 -5 10
v 3.3333333 -5 10
v 6.6666665 -5 10
v 10 -3.3333333 10
v 10 -1.6666666 10
v 10 1.6666666 10
v 10 3.3333333 10
v 6.6666665 5 10
v 3.3333333 5 10
v -3.3333333 5 10
v -6.6666665 5 10
v -10 3.3333333 10
v -10 1.6666666 10
v -10 -1.6666666 10
v -10 -3.3333333 10
vn 0 -1 0
vn 0 -1 0
vn 0 -1 0
vn 0 -1 0
vn 0 -1 0
vn 0 -1 0
vn 0 -1 0
vn 0 -1 0
vn 0 -1 0
vn 0 -1 0
vn 0 -1 0
vn 0 -1 0
vn 0 -1 0
vn 0 -1 0
vn 0 -1 0
vn 0 -1 0
vn 0 -1 0
vn 0 -1 0
vn 0 -1 0
vn 0 -1 0
vn 0 -1 0
vn 0 -1 0
vn 0 -1 0
vn 0 -1 0
vn 0 -1 0
vn 0 -1 0
vn 0 -1 0
vn 0 -1 0
vn 0 -1 0
vn 0 -1 0
vn 0 -1 0
vn 0 -1 0
vn 0 -1 0
vn 1 0 0
vn 1 0 0
vn 1 0 0
vn 1 0 0
vn 1 0 0
vn 1 0 0
vn 1 0 0
vn 1 0 0
vn 1 0 0
vn 1 0 0
vn 1 0 0
vn 1 0 0
vn 1 0 0
vn 1 0 0
vn 1 0 0
vn 1 0 0
vn 1 0 0
vn 1 0 0
vn 1 0 0
vn 1 0 0
vn 1 0 0
vn 1 0 0
vn 1 0 0
vn 1 0 0
vn 1 0 0
vn 1 0 0
vn 1 0 0
vn 1 0 0
vn 1 0 0
vn 1 0 0
vn 1 0 0
vn 1 0 0
vn 1 0 0
vn 0 1 0
vn 0 1 0
vn 0 1 0
vn 0 1 0
vn 0 1 0
vn 0 1 0
vn 0 1 0
vn 0 1 0
vn 0 1 0
vn 0 1 0
vn 0 1 0
vn 0 1 0
vn 0 1 0
vn 0 1 0
vn 0 1 0
vn 0 1 0
vn 0 1 0
vn 0 1 0
vn 0 1 0
vn 0 1 0
vn 0 1 0
vn 0 1 0
vn 0 1 0
vn 0 1 0
vn 0 1 0
vn 0 1 0
vn 0 1 0
vn 0 1 0
vn 0 1 0
vn 0 1 0
vn 0 1 0
vn 0 1 0
vn 0 1 0
vn -1 0 0
vn -1 0 0
vn -1 0 0
vn -1 0 0
vn -1 0 0
vn -1 0 0
vn -1 0 0
vn -1 0 0
vn -1 0 0
vn -1 0 0
vn -1 0 0
vn -1 0 0
vn -1 0 0
vn -1 0 0
vn -1 0 0
vn -1 0 0
vn -1 0 0
vn -1 0 0
vn -1 0 0
vn -1 0 0
vn -1 0 0
vn -1 0 0
vn -1 0 0
vn -1 0 0
vn -1 0 0
vn -1 0 0
vn -1 0 0
vn -1 0 0
vn -1 0 0
vn -1 0 0
vn -1 0 0
vn -1 0 0
vn -1 0 0
vn 0 0 -1
vn 0 0 -1
vn 0 0 -1
vn 0 0 -1
vn 0 0 -1
vn 0 0 -1
vn 0 0 -1
vn 0 0 -1
vn 0 0 -1
vn 0 0 -1
vn 0 0 -1
vn 0 0 -1
vn 0 0 -1
vn 0 0 -1
vn 0 0 -1
vn 0 0 -1
vn 0 0 -1
vn 0 0 -1
vn 0 0 -1
vn 0 0 -1
vn 0 0 -1
vn 0 0 -1
vn 0 0 -1
vn 0 0 -1
vn 0 0 -1
vn 0 0 -1
vn 0 0 -1
vn 0 0 -1
vn 0 0 -1
vn 0 0 -1
vn 0 0 -1
vn 0 0 -1
vn 0 0 -1
vn 0 0 1
vn 0 0 1
vn 0 0 1
vn 0 0 1
vn 0 0 1
vn 0 0 1
vn 0 0 1
vn 0 0 1
vn 0 0 1
vn 0 0 1
vn 0 0 1
vn 0 0 1
vn 0 0 1
vn 0 0 1
vn 0 0 1
vn 0 0 1
vn 0 0 1
vn 0 0 1
vn 0 0 1
vn 0 0 1
vn 0 0 1
vn 0 0 1
vn 0 0 1
vn 0 0 1
vn 0 0 1
vn 0 0 1
vn 0 0 1
vn 0 0 1
vn 0 0 1
vn 0 0 1
vn 0 0 1
vn 0 0 1
vn 0 0 1
f 9//9 5//5 4//4 8//8
f 10//10 6//6 5//5 9//9
f 13//13 9//9 8//8 12//12
f 14//14 10//10 9//9 13//13
f 29//29 1//1 18//18
f 29//29 4//4 28//28
f 4//4 29//29 18//18
f 19//19 7//7 8//8 4//4
f 4//4 5//5 2//2 28//28
f 7//7 20//20 12//12 8//8
f 18//18 19//19 4//4
f 27//27 2//2 5//5 6//6
f 25//25 3//3 26//26
f 26//26 27//27 6//6
f 26//26 6//6 25//25
f 6//6 24//24 25//25
f 6//6 10//10 11//11 24//24
f 12//12 20//20 21//21
f 13//13 12//12 31//31 16//16
f 30//30 12//12 21//21
f 21//21 15//15 30//30
f 12//12 30//30 31//31
f 16//16 32//32 14//14 13//13
f 10//10 14//14 23//23 11//11
f 23//23 14//14 22//22
f 14//14 33//33 22//22
f 33//33 17//17 22//22
f 32//32 33//33 14//14
f 42//42 38//38 37//37 41//41
f 43//43 39//39 38//38 42//42
f 46//46 42//42 41//41 45//45
f 47//47 43//43 42//42 46//46
f 62//62 34//34 51//51
f 62//62 37//37 61//61
f 37//37 62//62 51//51
f 52//52 40//40 41//41 37//37
f 37//37 38//38 35//35 61//61
f 40//40 53//53 45//45 41//41
f 51//51 52//52 37//37
f 60//60 35//35 38//38 39//39
f 58//58 36//36 59//59
f 59//59 60//60 39//39
f 59//59 39//39 58//58
f 39//39 57//57 58//58
f 39//39 43//43 44//44 57//57
f 45//45 53//53 54//54
f 46//46 45//45 64//64 49//49
f 63//63 45//45 54//54
f 54//54 48//48 63//63
f 45//45 63//63 64//64
f 49//49 65//65 47//47 46//46
f 43//43 47//47 56//56 44//44
f 56//56 47//47 55//55
f 47//47 66//66 55//55
f 66//66 50//50 55//55
f 65//65 66//66 47//47
f 75//75 71//71 70//70 74//74
f 76//76 72//72 71//71 75//75
f 79//79 75//75 74//74 78//78
f 80//80 76//76 75//75 79//79
f 95//95 67//67 84//84
f 95//95 70//70 94//94
f 70//70 95//95 84//84
f 85//85 73//73 74//74 70//70
f 70//70 71//71 68//68 94//94
f 73//73 86//86 78//78 74//74
f 84//84 85//85 70//70
f 93//93 68//68 71//71 72//72
f 91//91 69//69 92//92
f 92//92 93//93 72//72
f 92//92 72//72 91//91
f 72//72 90//90 91//91
f 72//72 76//76 77//77 90//90
f 78//78 86//86 87//87
f 79//79 78//78 97//97 82//82
f 96//96 78//78 87//87
f 87//87 81//81 96//96
f 78//78 96//96 97//97
f 82//82 98//98 80//80 79//79
f 76//76 80//80 89//89 77//77
f 89//89 80//80 88//88
f 80//80 99//99 88//88
f 99//99 83//83 88//88
f 98//98 99//99 80//80
f 108//108 104//104 103//103 107//107
f 109//109 105//105 104//104 108//108
f 112//112 108//108 107//107 111//111
f 113//113 109//109 108//108 112//112
f 132//132 100//100 117//117
f 132//132 103//103 131//131
f 103//103 132//132 117//117
f 118//118 106//106 107//107 103//103
f 103//103 104//104 101//101 131//131
f 106//106 119//119 111//111 107//107
f 117//117 118//118 103//103
f 130//130 101//101 104//104 105//105
f 124//124 102//102 129//129
f 129//129 130//130 105//105
f 129//129 105//105 124//124
f 105//105 123//123 124//124
f 105//105 109//109 110//110 123//123
f 111//111 119//119 120//120
f 112//112 111//111 126//126 115//115
f 125//125 111//111 120//120
f 120//120 114//114 125//125
f 111//111 125//125 126//126
f 115//115 127//127 113//113 112//112
f 109//109 113//113 122//122 110//110
f 122//122 113//113 121//121
f 113//113 128//128 121//121
f 128//128 116//116 121//121
f 127//127 128//128 113//113
f 141//141 137//137 136//136 140//140
f 142//142 138//138 137//137 141//141
f 145//145 141//141 140//140 144//144
f 146//146 142//142 141//141 145//145
f 153//153 133//133 162//162
f 153//153 136//136 152//152
f 136//136 153//153 162//162
f 140//140 163//163 139//139
f 136//136 137//137 134//134 152//152
f 163//163 140//140 136//136
f 139//139 164//164 144//144 140//140
f 162//162 163//163 136//136
f 151//151 134//134 137//137 138//138
f 157//157 135//135 150//150
f 150//150 151//151 138//138
f 150//150 138//138 157//157
f 138//138 156//156 157//157
f 138//138 142//142 143//143 156//156
f 144//144 164//164 165//165
f 145//145 144//144 159//159 148//148
f 158//158 144//144 165//165
f 165//165 147//147 158//158
f 144//144 158//158 159//159
f 148//148 160//160 146//146 145//145
f 142//142 146//146 155//155 143//143
f 155//155 146//146 154//154
f 146//146 161//161 154//154
f 161//161 149//149 154//154
f 160//160 161//161 146//146
f 174//174 170//170 169//169 173//173
f 175//175 171//171 170//170 174//174
f 178//178 174//174 173//173 177//177
f 179//179 175//175 174//174 178//178
f 198//198 166//166 183//183
f 198//198 169//169 197//197
f 169//169 198//198 183//183
f 184//184 172//172 173//173 169//169
f 169//169 170//170 167//167 197//197
f 172//172 185//185 177//177 173//173
f 183//183 184//184 169//169
f 196//196 167//167 170//170 171//171
f 194//194 168//168 195//195
f 195//195 196//196 171//171
f 195//195 171//171 194//194
f 171//171 193//193 194//194
f 171//171 175//175 176//176 193//193
f 177//177 185//185 186//186
f 178//178 177//177 188//188 181//181
f 187//187 177//177 186//186
f 186//186 180//180 187//187
f 177//177 187//187 188//188
f 181//181 189//189 179//179 178//178
f 175//175 179//179 192//192 176//176
f 192//192 179//179 191//191
f 179//179 190//190 191//191
f 190//190 182//182 191//191
f 189//189 190//190 179//179
